<svg version="1.1" viewBox="0.0 0.0 614.0472440944882 617.6587926509186" fill="none" stroke="none" stroke-linecap="square" stroke-miterlimit="10" xmlns:xlink="http://www.w3.org/1999/xlink" xmlns="http://www.w3.org/2000/svg"><clipPath id="p.0"><path d="m0 0l614.04724 0l0 617.6588l-614.04724 0l0 -617.6588z" clip-rule="nonzero"/></clipPath><g clip-path="url(#p.0)"><path fill="#000000" fill-opacity="0.0" d="m0 0l614.04724 0l0 617.6588l-614.04724 0z" fill-rule="evenodd"/><path fill="#a64d79" d="m348.35828 167.31758l0 283.02362l-75.40158 0l0 -283.02362z" fill-rule="evenodd"/><path fill="#134f5c" d="m68.44882 271.1286l484.41733 0l0 75.40158l-484.41733 0z" fill-rule="evenodd"/><path fill="#a64d79" d="m162.94095 271.1286l295.43307 0l0 75.40158l-295.43307 0z" fill-rule="evenodd"/><path fill="#134f5c" d="m268.31235 114.63517l0 0c0 -20.821571 18.959137 -37.70079 42.346436 -37.70079l0 0c23.387299 0 42.346466 16.87922 42.346466 37.70079l0 0c0 20.821571 -18.959167 37.700783 -42.346466 37.700783l0 0c-23.387299 0 -42.346436 -16.879211 -42.346436 -37.700783z" fill-rule="evenodd"/><path fill="#134f5c" d="m268.31104 503.02362l0 0c0 -20.821564 18.959137 -37.700775 42.346436 -37.700775l0 0c23.387299 0 42.346466 16.879211 42.346466 37.700775l0 0c0 20.821594 -18.959167 37.700806 -42.346466 37.700806l0 0c-23.387299 0 -42.346436 -16.879211 -42.346436 -37.700806z" fill-rule="evenodd"/><path fill="#4cacb7" d="m93.58662 482.27823l325.01535 -346.89764l109.12637 0l-325.01532 346.89764z" fill-rule="evenodd"/><path fill="#4cacb7" d="m527.72833 482.27823l-317.6056 -346.89764l-116.536125 0l317.60562 346.89764z" fill-rule="evenodd"/><path stroke="#434343" stroke-width="1.0" stroke-linejoin="round" stroke-linecap="butt" d="m527.72833 482.27823l-317.6056 -346.89764l-116.536125 0l317.60562 346.89764z" fill-rule="evenodd"/></g></svg>